<svg version="1.2" baseProfile="tiny-ps" xmlns="http://www.w3.org/2000/svg" viewBox="0 0 695 235" width="695" height="235">
	<title>Fixed-End</title>
	<style>
		tspan { white-space:pre }
		.shp0 { fill: #3a87f2 } 
		.shp1 { fill: #fa4a4a } 
	</style>
	<path id="Shape 7" class="shp0" d="M650.32 212.14L652.9 207.87L687.1 228.51L684.51 232.79L650.32 212.14Z" />
	<path id="Shape 7 copy 9" class="shp0" d="M652.09 189.14L654.67 184.86L688.86 205.5L686.28 209.78L652.09 189.14Z" />
	<path id="Shape 7 copy 8" class="shp0" d="M651.87 168.15L654.46 163.87L688.65 184.52L686.07 188.79L651.87 168.15Z" />
	<path id="Shape 7 copy 7" class="shp0" d="M651.62 143.16L654.2 138.89L688.4 159.53L685.81 163.81L651.62 143.16Z" />
	<path id="Shape 7 copy 6" class="shp0" d="M651.39 120.18L653.97 115.9L688.16 136.54L685.58 140.82L651.39 120.18Z" />
	<path id="Shape 7 copy 5" class="shp0" d="M651.16 97.19L653.74 92.91L687.93 113.56L685.35 117.83L651.16 97.19Z" />
	<path id="Shape 7 copy 4" class="shp0" d="M650.91 73.2L653.5 68.92L687.69 89.57L685.11 93.85L650.91 73.2Z" />
	<path id="Shape 7 copy 3" class="shp0" d="M650.68 50.22L653.26 45.94L687.46 66.58L684.87 70.86L650.68 50.22Z" />
	<path id="Shape 7 copy 2" class="shp0" d="M650.46 28.23L653.04 23.95L687.23 44.59L684.65 48.87L650.46 28.23Z" />
	<path id="Shape 7 copy" class="shp0" d="M649.24 6.25L651.82 1.97L686.01 22.62L683.43 26.89L649.24 6.25Z" />
	<path id="Shape 6 copy 10" class="shp0" d="M48.86 209.83L50.97 214.36L18.14 229.68L16.03 225.16L48.86 209.83Z" />
	<path id="Shape 6 copy 9" class="shp0" d="M47.62 186.85L49.74 191.38L16.91 206.71L14.79 202.18L47.62 186.85Z" />
	<path id="Shape 6 copy 8" class="shp0" d="M47.38 162.87L49.5 167.4L16.67 182.72L14.55 178.19L47.38 162.87Z" />
	<path id="Shape 6 copy 7" class="shp0" d="M47.13 137.88L49.24 142.41L16.41 157.73L14.3 153.21L47.13 137.88Z" />
	<path id="Shape 6 copy 6" class="shp0" d="M46.9 114.89L49.01 119.42L16.18 134.75L14.07 130.22L46.9 114.89Z" />
	<path id="Shape 6 copy 5" class="shp0" d="M46.65 90.91L48.77 95.44L15.94 110.76L13.82 106.23L46.65 90.91Z" />
	<path id="Shape 6 copy 4" class="shp0" d="M46.41 66.92L48.53 71.45L15.7 86.77L13.58 82.25L46.41 66.92Z" />
	<path id="Shape 6 copy 3" class="shp0" d="M46.2 45.93L48.31 50.46L15.48 65.79L13.37 61.26L46.2 45.93Z" />
	<path id="Shape 6 copy 2" class="shp0" d="M45.99 24.94L48.1 29.47L15.27 44.8L13.16 40.27L45.99 24.94Z" />
	<path id="Shape 6 copy" class="shp0" d="M46.79 5.95L48.91 10.47L16.08 25.8L13.96 21.27L46.79 5.95Z" />
	<path id="Shape 5" class="shp1" d="M613.74 72.45L618.73 72.4L619.14 112.38L614.14 112.43L613.74 72.45Z" />
	<path id="Shape 5 copy 16" class="shp1" d="M579.76 72.8L584.75 72.75L585.16 112.72L580.16 112.77L579.76 72.8Z" />
	<path id="Shape 5 copy 15" class="shp1" d="M544.78 73.15L549.77 73.1L550.18 113.08L545.18 113.13L544.78 73.15Z" />
	<path id="Shape 5 copy 14" class="shp1" d="M508.8 73.51L513.79 73.46L514.2 113.44L509.2 113.49L508.8 73.51Z" />
	<path id="Shape 5 copy 13" class="shp1" d="M473.82 73.87L478.81 73.82L479.22 113.79L474.22 113.85L473.82 73.87Z" />
	<path id="Shape 5 copy 12" class="shp1" d="M434.84 74.26L439.84 74.21L440.24 114.19L435.24 114.24L434.84 74.26Z" />
	<path id="Shape 5 copy 11" class="shp1" d="M398.86 74.63L403.86 74.58L404.26 114.55L399.26 114.6L398.86 74.63Z" />
	<path id="Shape 5 copy 10" class="shp1" d="M365.88 74.96L370.88 74.91L371.28 114.89L366.28 114.94L365.88 74.96Z" />
	<path id="Shape 5 copy 9" class="shp1" d="M330.9 75.31L335.9 75.26L336.3 115.24L331.3 115.29L330.9 75.31Z" />
	<path id="Shape 5 copy 8" class="shp1" d="M296.92 75.66L301.91 75.61L302.32 115.58L297.32 115.64L296.92 75.66Z" />
	<path id="Shape 5 copy 7" class="shp1" d="M265.94 75.97L270.93 75.92L271.34 115.9L266.34 115.95L265.94 75.97Z" />
	<path id="Shape 5 copy 6" class="shp1" d="M233.95 76.29L238.95 76.24L239.35 116.22L234.36 116.27L233.95 76.29Z" />
	<path id="Shape 5 copy 5" class="shp1" d="M201.97 76.62L206.97 76.57L207.37 116.55L202.38 116.6L201.97 76.62Z" />
	<path id="Shape 5 copy 4" class="shp1" d="M168.99 76.95L173.99 76.9L174.39 116.88L169.39 116.93L168.99 76.95Z" />
	<path id="Shape 5 copy 3" class="shp1" d="M138.01 77.27L143.01 77.21L143.41 117.19L138.41 117.24L138.01 77.27Z" />
	<path id="Shape 5 copy 2" class="shp1" d="M108.02 77.57L113.02 77.52L113.43 117.5L108.43 117.55L108.02 77.57Z" />
	<path id="Shape 5 copy" class="shp1" d="M76.03 76.89L81.03 76.84L81.43 116.82L76.44 116.87L76.03 76.89Z" />
	<path id="Shape 2" class="shp0" d="M49.95 117.03L649.61 110.96L649.72 121.96L50.06 128.02L49.95 117.03Z" />
	<path id="Shape 7" class="shp1" d="M49.55 78.66L49.52 73.66L649.2 69.59L649.23 74.59L49.55 78.66Z" />
	<path id="Shape 3" class="shp0" d="M46.32 5.31L51.32 5.31L51.44 215.21L46.45 215.21L46.32 5.31Z" />
	<path id="Shape 3 copy" class="shp0" d="M649.01 2.21L654.01 2.21L654.13 212.11L649.13 212.12L649.01 2.21Z" />
</svg>