<svg version="1.2" baseProfile="tiny-ps" xmlns="http://www.w3.org/2000/svg" viewBox="0 0 193 193" width="193" height="193">
	<title>c4-engineering-technology-8914-svg</title>
	<style>
		tspan { white-space:pre }
		.shp0 { fill: #cc2229 } 
		.shp1 { fill: #3a87f2 } 
	</style>
	<g id="Layer">
		<path id="Layer" fill-rule="evenodd" class="shp0" d="M145.76 23.28C169.81 39.31 185.7 66.68 185.7 97.64C185.7 139.59 156.51 174.94 117.41 184.44C146.68 172.98 167.51 144.44 167.51 111.19C167.51 107.99 167.31 104.84 166.94 101.74L140.27 101.74C140.83 104.8 141.13 107.96 141.13 111.19L141.12 111.37L112.6 111.37L145.76 62.52L145.76 23.28L145.76 23.28Z" />
		<path id="Layer" fill-rule="evenodd" class="shp1" d="M96.38 8.32C113.89 8.32 130.24 13.4 144.05 22.16L81.93 110.65L81.93 136.68L134.45 136.68C125.49 152.62 108.41 163.42 88.89 163.42C60.12 163.42 36.65 139.95 36.65 111.19C36.65 82.42 60.12 58.95 88.89 58.95C90.5 58.95 92.1 59.02 93.7 59.17C95.3 59.32 96.89 59.54 98.47 59.83C100.05 60.13 101.62 60.5 103.16 60.94C104.71 61.38 106.23 61.89 107.73 62.47L122.45 40.11C119.84 38.87 117.16 37.78 114.43 36.84C111.69 35.89 108.91 35.1 106.09 34.47C103.27 33.83 100.42 33.35 97.54 33.04C94.67 32.72 91.78 32.56 88.89 32.56C45.58 32.56 10.27 67.88 10.27 111.19C10.27 116.22 10.75 121.14 11.66 125.91C10.9 123.63 10.23 121.33 9.65 119C9.08 116.68 8.59 114.33 8.21 111.96C7.82 109.59 7.53 107.21 7.34 104.82C7.15 102.43 7.05 100.03 7.06 97.64C7.06 48.44 47.18 8.32 96.38 8.32Z" />
	</g>
</svg>